<svg width="76" height="76" viewBox="0 0 76 76" fill="none" xmlns="http://www.w3.org/2000/svg">
<g clip-path="url(#clip0_111_119)">
<path d="M76 38C76 17.0132 58.9868 -7.62939e-06 38 -7.62939e-06C17.0132 -7.62939e-06 0 17.0132 0 38C0 56.9669 13.8961 72.6876 32.0625 75.5384V48.9844H22.4141V38H32.0625V29.6281C32.0625 20.1044 37.7356 14.8437 46.4157 14.8437C50.5732 14.8437 54.9219 15.5859 54.9219 15.5859V24.9375H50.1302C45.4096 24.9375 43.9375 27.8667 43.9375 30.8718V38H54.4766L52.7918 48.9844H43.9375V75.5384C62.1039 72.6876 76 56.9669 76 38Z" fill="#1877F2"/>
<path d="M52.7918 48.9844L54.4766 38H43.9375V30.8718C43.9375 27.8667 45.4096 24.9375 50.1302 24.9375H54.9219V15.5859C54.9219 15.5859 50.5732 14.8438 46.4157 14.8438C37.7356 14.8438 32.0625 20.1044 32.0625 29.6281V38H22.4141V48.9844H32.0625V75.5384C33.9972 75.8419 35.9801 76 38 76C40.0199 76 42.0028 75.8419 43.9375 75.5384V48.9844H52.7918Z" fill="white"/>
</g>
<defs>
<clipPath id="clip0_111_119">
<rect width="76" height="76" fill="white"/>
</clipPath>
</defs>
</svg>
