<svg width="76" height="76" viewBox="0 0 76 76" fill="none" xmlns="http://www.w3.org/2000/svg">
<path d="M63.8903 0C70.5772 0 76 5.42172 76 12.1108V63.8903C76 70.5772 70.5772 76 63.8903 76H12.1108C5.42284 76 0 70.5772 0 63.8903V12.1108C0 5.42172 5.42284 0 12.1108 0H63.8903Z" fill="#FFFC00"/>
<path d="M63.5662 51.0576C63.3423 50.3164 62.2704 49.7937 62.2704 49.7937C62.169 49.7404 62.0784 49.6924 62.0037 49.6551C60.2172 48.7912 58.6334 47.7513 57.3002 46.5727C56.2282 45.6235 55.311 44.5782 54.5751 43.469C53.6738 42.1144 53.2525 40.9839 53.0712 40.3706C52.9699 39.9706 52.9859 39.8107 53.0712 39.6027C53.1405 39.4267 53.3485 39.2614 53.4445 39.1814C54.0471 38.7548 55.0177 38.1255 55.615 37.7415C56.1323 37.4056 56.5749 37.1176 56.8362 36.9363C57.6735 36.3496 58.2494 35.7524 58.5854 35.1071C59.0227 34.2752 59.076 33.3579 58.7347 32.4567C58.2761 31.2408 57.1402 30.5155 55.695 30.5155C55.375 30.5155 55.0444 30.5529 54.7137 30.6222C53.8871 30.8035 53.1032 31.0968 52.4473 31.3528C52.3993 31.3741 52.3459 31.3368 52.3513 31.2834C52.4206 29.6569 52.5006 27.4705 52.3193 25.396C52.1593 23.5188 51.77 21.935 51.1407 20.5538C50.5061 19.1672 49.6795 18.1433 49.0342 17.4021C48.421 16.6981 47.3384 15.6582 45.7066 14.725C43.4134 13.4131 40.8003 12.7465 37.9419 12.7465C35.0889 12.7465 32.4811 13.4131 30.1827 14.725C28.4548 15.7116 27.3509 16.8261 26.8496 17.4021C26.2044 18.1433 25.3778 19.1672 24.7432 20.5538C24.1086 21.935 23.7246 23.5135 23.5646 25.396C23.3833 27.4811 23.4579 29.4916 23.5326 31.2834C23.5326 31.3368 23.4846 31.3741 23.4313 31.3528C22.7753 31.0968 21.9914 30.8035 21.1648 30.6222C20.8395 30.5529 20.5089 30.5155 20.1836 30.5155C18.7437 30.5155 17.6078 31.2408 17.1439 32.4567C16.8026 33.3579 16.8559 34.2752 17.2932 35.1071C17.6345 35.7524 18.2051 36.3496 19.0424 36.9363C19.2983 37.1176 19.7463 37.4056 20.2636 37.7415C20.8449 38.1202 21.7888 38.7334 22.3967 39.1547C22.4714 39.208 22.7274 39.4 22.8073 39.6027C22.8927 39.816 22.9087 39.976 22.7967 40.4026C22.61 41.0212 22.1887 42.1411 21.3035 43.469C20.5676 44.5836 19.6503 45.6235 18.5784 46.5727C17.2452 47.7513 15.6613 48.7912 13.8748 49.6551C13.7895 49.6977 13.6882 49.7457 13.5815 49.8097C13.5815 49.8097 12.515 50.3537 12.3123 51.0576C12.0137 52.0975 12.8083 53.0734 13.6135 53.5961C14.9361 54.4493 16.5466 54.9079 17.4798 55.1586C17.7411 55.2279 17.9758 55.2919 18.1891 55.3559C18.3224 55.3986 18.6584 55.5265 18.8024 55.7132C18.9837 55.9478 19.005 56.2358 19.069 56.5611C19.1703 57.1104 19.3997 57.7877 20.0769 58.257C20.8235 58.7689 21.7674 58.8062 22.9673 58.8542C24.2205 58.9022 25.7777 58.9609 27.5642 59.5528C28.3908 59.8248 29.1428 60.2888 30.0067 60.822C31.8198 61.9366 34.0756 63.3232 37.9259 63.3232C41.7816 63.3232 44.0534 61.9313 45.8772 60.8114C46.7411 60.2834 47.4824 59.8248 48.293 59.5582C50.0795 58.9662 51.6367 58.9076 52.8899 58.8596C54.0898 58.8116 55.0337 58.7796 55.7803 58.2623C56.5056 57.761 56.7135 57.0144 56.8095 56.4545C56.8629 56.1771 56.8949 55.9265 57.0548 55.7239C57.1935 55.5479 57.5028 55.4252 57.6468 55.3772C57.8654 55.3079 58.1107 55.2439 58.3827 55.1692C59.316 54.9186 60.4892 54.6253 61.9131 53.82C63.6302 52.8441 63.7476 51.6496 63.5662 51.0576Z" fill="white"/>
<path d="M65.0486 50.4817C64.67 49.4471 63.9447 48.8978 63.1235 48.4392C62.9688 48.3486 62.8248 48.2739 62.7075 48.2206C62.4622 48.0926 62.2116 47.9699 61.9609 47.8419C59.3958 46.4821 57.3907 44.7649 56.0041 42.7331C55.5348 42.0451 55.2095 41.4265 54.9802 40.9199C54.8629 40.5786 54.8682 40.3866 54.9536 40.2106C55.0176 40.0773 55.1882 39.9387 55.2842 39.8693C55.7268 39.576 56.1801 39.2827 56.4894 39.0854C57.0387 38.7281 57.476 38.4455 57.7533 38.2535C58.8092 37.5176 59.5451 36.7336 60.0038 35.859C60.6544 34.6272 60.7344 33.2193 60.2331 31.8967C59.5398 30.0623 57.8013 28.921 55.7002 28.921C55.2629 28.921 54.8202 28.969 54.3829 29.065C54.2656 29.0917 54.1536 29.1183 54.0416 29.145C54.063 27.8971 54.031 26.5639 53.919 25.2627C53.5244 20.6765 51.9192 18.2713 50.2447 16.3569C49.5461 15.5569 48.3302 14.389 46.5063 13.3438C43.9626 11.8826 41.0828 11.1467 37.9418 11.1467C34.8114 11.1467 31.9317 11.8826 29.3879 13.3385C27.5534 14.3837 26.3375 15.5569 25.6443 16.3515C23.9698 18.266 22.3646 20.6711 21.9699 25.2574C21.858 26.5586 21.8313 27.8918 21.8473 29.1397C21.7353 29.113 21.618 29.0863 21.506 29.0597C21.0687 28.9637 20.6207 28.9157 20.1888 28.9157C18.0876 28.9157 16.3491 30.0569 15.6559 31.8914C15.1546 33.214 15.2346 34.6218 15.8852 35.8537C16.3438 36.7283 17.0851 37.5122 18.1356 38.2482C18.4183 38.4455 18.8502 38.7281 19.3995 39.0801C19.6982 39.2721 20.1301 39.5547 20.5567 39.8373C20.6207 39.88 20.8501 40.0507 20.93 40.2106C21.0207 40.392 21.0207 40.5893 20.8874 40.9519C20.6634 41.4479 20.3381 42.0558 19.8795 42.7277C18.5196 44.7169 16.5731 46.4021 14.0933 47.7459C12.7761 48.4445 11.4109 48.9085 10.835 50.4764C10.3977 51.6603 10.6857 53.0095 11.7896 54.1454C12.1522 54.5347 12.6108 54.8813 13.1868 55.2013C14.5413 55.9479 15.6932 56.3158 16.5998 56.5665C16.7598 56.6145 17.1277 56.7318 17.2877 56.8758C17.693 57.2277 17.6343 57.761 18.173 58.5396C18.4983 59.0249 18.8716 59.3555 19.1809 59.5689C20.3061 60.3474 21.5753 60.3954 22.9192 60.4488C24.1297 60.4968 25.5056 60.5501 27.0735 61.0674C27.7241 61.2807 28.4014 61.6967 29.1799 62.1766C31.0571 63.3338 33.6329 64.9124 37.9365 64.9124C42.2454 64.9124 44.8318 63.3232 46.725 62.1659C47.5036 61.6913 48.1755 61.2754 48.8048 61.0674C50.3727 60.5501 51.7485 60.4968 52.9591 60.4488C54.303 60.3954 55.5668 60.3474 56.6974 59.5689C57.0494 59.3235 57.4973 58.9236 57.8493 58.3156C58.2333 57.6597 58.2279 57.1957 58.5906 56.8811C58.7399 56.7531 59.0652 56.6411 59.2412 56.5878C60.1531 56.3372 61.321 55.9692 62.7022 55.2066C63.3155 54.8706 63.7901 54.5027 64.1687 54.0814C64.174 54.076 64.1794 54.0707 64.1847 54.0654C65.2139 52.9455 65.4753 51.6389 65.0486 50.4817ZM61.225 52.5348C58.8892 53.8254 57.3373 53.6867 56.1321 54.46C55.1082 55.1213 55.7108 56.5451 54.9696 57.0571C54.0523 57.6917 51.3486 57.0144 47.8556 58.1663C44.9758 59.1209 43.136 61.8566 37.9471 61.8566C32.7476 61.8566 30.9611 59.1316 28.0387 58.1663C24.5457 57.0144 21.8366 57.6917 20.9247 57.0571C20.1834 56.5451 20.7861 55.1213 19.7622 54.46C18.5569 53.6814 17.0051 53.82 14.6693 52.5348C13.1814 51.7136 14.024 51.207 14.52 50.967C22.9779 46.8767 24.3217 40.5519 24.3857 40.0773C24.4604 39.512 24.5404 39.0641 23.9164 38.4828C23.3138 37.9229 20.6314 36.2643 19.8901 35.7471C18.6583 34.8885 18.1196 34.0299 18.5196 32.974C18.7969 32.2434 19.4795 31.9714 20.1994 31.9714C20.4234 31.9714 20.6527 31.9981 20.8714 32.0461C22.2206 32.3394 23.5325 33.0166 24.2897 33.198C24.3964 33.2246 24.487 33.2353 24.567 33.2353C24.9723 33.2353 25.111 33.0326 25.0843 32.5687C24.999 31.0915 24.7857 28.2118 25.0203 25.5187C25.3403 21.8177 26.5349 19.9832 27.9534 18.3567C28.636 17.5781 31.8357 14.1971 37.9525 14.1971C44.0852 14.1971 47.2689 17.5781 47.9515 18.3567C49.3701 19.9779 50.5646 21.8123 50.8846 25.5187C51.1193 28.2118 50.9166 31.0915 50.8206 32.5687C50.7886 33.054 50.9379 33.2353 51.3379 33.2353C51.4179 33.2353 51.5139 33.2246 51.6152 33.198C52.3725 33.0166 53.6843 32.3394 55.0336 32.0461C55.2522 31.9981 55.4815 31.9714 55.7055 31.9714C56.4254 31.9714 57.108 32.2487 57.3853 32.974C57.7853 34.0299 57.2414 34.8885 56.0148 35.7471C55.2735 36.2643 52.5911 37.9229 51.9885 38.4828C51.3646 39.0588 51.4446 39.5067 51.5192 40.0773C51.5779 40.5519 52.9271 46.8767 61.385 50.967C61.8649 51.207 62.7128 51.7136 61.225 52.5348Z" fill="black"/>
</svg>
