<svg width="32" height="32" viewBox="0 0 32 32" fill="none" xmlns="http://www.w3.org/2000/svg">
<path d="M16 0C24.8457 0 32 7.15429 32 16C32 24.8457 24.8457 32 16 32C7.15429 32 0 24.8457 0 16C0 7.15429 7.15429 0 16 0ZM13.0743 24.4343C20.16 24.4343 24.0457 18.56 24.0457 13.4629V12.96C24.8 12.4114 25.4629 11.7257 25.9657 10.9486C25.28 11.2457 24.5257 11.4514 23.7486 11.5657C24.5486 11.0857 25.1657 10.3314 25.44 9.44C24.6857 9.87429 23.8629 10.1943 22.9943 10.3771C22.2857 9.62286 21.28 9.16572 20.1829 9.16572C18.0571 9.16572 16.32 10.9029 16.32 13.0286C16.32 13.3257 16.3429 13.6229 16.4343 13.8971C13.2343 13.7371 10.3771 12.2057 8.48 9.87429C8.16 10.4457 7.95429 11.1086 7.95429 11.8171C7.95429 13.1429 8.64 14.3314 9.66857 15.0171C9.02857 15.0171 8.43429 14.8343 7.93143 14.5371V14.5829C7.93143 16.4571 9.25714 18.0114 11.0171 18.3771C10.6971 18.4686 10.3543 18.5143 10.0114 18.5143C9.76 18.5143 9.53143 18.4914 9.28 18.4457C9.76 19.9771 11.2 21.0971 12.8686 21.12C11.5429 22.1486 9.87429 22.7657 8.06857 22.7657C7.74857 22.7657 7.45143 22.7657 7.15429 22.72C8.84571 23.8171 10.88 24.4571 13.0514 24.4571" fill="white"/>
</svg>
